<svg width="31" height="31" viewBox="0 0 31 31" fill="none" xmlns="http://www.w3.org/2000/svg">
<g id="Group 8025">
<path id="Rectangle 102 (Stroke)" fill-rule="evenodd" clip-rule="evenodd" d="M6.73898 1.34783H24.2607C27.2383 1.34783 29.652 3.7616 29.652 6.73913V24.2609C29.652 27.2384 27.2383 29.6522 24.2607 29.6522H6.73898C3.76144 29.6522 1.34767 27.2384 1.34767 24.2609V6.73913C1.34767 3.7616 3.76144 1.34783 6.73898 1.34783ZM24.2607 0C27.9826 0 30.9998 3.01721 30.9998 6.73913V24.2609C30.9998 27.9828 27.9826 31 24.2607 31H6.73898C3.01706 31 -0.000152588 27.9828 -0.000152588 24.2609V6.73913C-0.000152588 3.01721 3.01706 0 6.73898 0H24.2607Z" fill="#6A6F73"/>
<g id="Group 8093">
<g id="Group 157">
<path id="Vector 80 (Stroke)" fill-rule="evenodd" clip-rule="evenodd" d="M22.9998 15.7281C22.9998 15.2556 22.6168 14.8726 22.1443 14.8726H9.31181C8.83933 14.8726 8.45631 15.2556 8.45631 15.7281C8.45631 16.2005 8.83933 16.5836 9.31181 16.5836H22.1443C22.6168 16.5836 22.9998 16.2005 22.9998 15.7281Z" fill="#6A6F73" stroke="#6A6F73" stroke-linecap="round"/>
</g>
<g id="Group 158">
<path id="Vector 80 (Stroke)_2" fill-rule="evenodd" clip-rule="evenodd" d="M15.727 23C16.1994 23 16.5825 22.617 16.5825 22.1445L16.5825 9.31202C16.5825 8.83954 16.1994 8.45652 15.727 8.45652C15.2545 8.45652 14.8715 8.83954 14.8715 9.31202L14.8715 22.1445C14.8715 22.617 15.2545 23 15.727 23Z" fill="#6A6F73" stroke="#6A6F73" stroke-linecap="round"/>
</g>
</g>
</g>
</svg>
