<svg width="30" height="19" viewBox="0 0 30 19" fill="none" xmlns="http://www.w3.org/2000/svg">
<path d="M14.2035 12.9243C15.3532 11.958 16.1778 10.6615 16.5655 9.21067C16.9533 7.75982 16.8854 6.22481 16.3712 4.81381C15.857 3.40282 14.9212 2.18413 13.6909 1.323C12.4605 0.461881 10.995 0 9.49327 0C7.99149 0 6.52605 0.461881 5.29568 1.323C4.06531 2.18413 3.12956 3.40282 2.61532 4.81381C2.10108 6.22481 2.03325 7.75982 2.42101 9.21067C2.80878 10.6615 3.63338 11.958 4.78299 12.9243C2.98785 13.736 1.43217 14.9966 0.26602 16.5846C0.0506331 16.8781 -0.0393386 17.2451 0.0158975 17.6049C0.0711336 17.9648 0.267053 18.2879 0.560555 18.5033C0.854057 18.7187 1.2211 18.8087 1.58094 18.7534C1.94078 18.6982 2.26394 18.5023 2.47932 18.2088C3.28657 17.1063 4.34234 16.2096 5.56099 15.5915C6.77964 14.9734 8.12683 14.6513 9.49327 14.6513C10.8597 14.6513 12.2069 14.9734 13.4255 15.5915C14.6442 16.2096 15.7 17.1063 16.5072 18.2088C16.7226 18.5024 17.0458 18.6985 17.4058 18.7538C17.7657 18.8092 18.1329 18.7193 18.4265 18.5039C18.7202 18.2885 18.9163 17.9653 18.9716 17.6053C19.027 17.2454 18.937 16.8782 18.7217 16.5846C17.5548 14.9968 15.9988 13.7363 14.2035 12.9243ZM4.91796 7.32643C4.91796 6.42152 5.1863 5.53693 5.68904 4.78452C6.19178 4.03212 6.90635 3.44569 7.74237 3.09939C8.5784 2.7531 9.49834 2.66249 10.3859 2.83903C11.2734 3.01557 12.0886 3.45133 12.7285 4.0912C13.3684 4.73106 13.8041 5.54631 13.9807 6.43383C14.1572 7.32135 14.0666 8.24129 13.7203 9.07732C13.374 9.91335 12.7876 10.6279 12.0352 11.1307C11.2828 11.6334 10.3982 11.9017 9.49327 11.9017C8.27982 11.9017 7.11607 11.4197 6.25804 10.5617C5.4 9.70362 4.91796 8.53987 4.91796 7.32643ZM28.4922 18.4982C28.3469 18.605 28.182 18.6821 28.0069 18.7251C27.8318 18.7681 27.6499 18.7762 27.4716 18.7489C27.2934 18.7216 27.1223 18.6594 26.9681 18.566C26.8139 18.4725 26.6796 18.3496 26.5729 18.2042C25.7636 17.1038 24.7074 16.2087 23.4892 15.5909C22.271 14.973 20.9249 14.6497 19.5589 14.6469C19.1949 14.6469 18.8458 14.5023 18.5884 14.2449C18.331 13.9875 18.1863 13.6384 18.1863 13.2743C18.1863 12.9103 18.331 12.5612 18.5884 12.3038C18.8458 12.0463 19.1949 11.9017 19.5589 11.9017C20.2326 11.9009 20.8978 11.7514 21.507 11.4638C22.1162 11.1762 22.6543 10.7576 23.083 10.2379C23.5117 9.71821 23.8203 9.11028 23.9869 8.45752C24.1534 7.80476 24.1737 7.12328 24.0464 6.46175C23.9191 5.80022 23.6473 5.17496 23.2504 4.63065C22.8534 4.08633 22.3412 3.63638 21.7502 3.31295C21.1593 2.98951 20.5042 2.80056 19.8318 2.75959C19.1594 2.71863 18.4862 2.82666 17.8604 3.07597C17.6927 3.14461 17.5131 3.17939 17.332 3.1783C17.1508 3.17721 16.9717 3.14027 16.8049 3.06961C16.6381 2.99896 16.4869 2.89598 16.3601 2.76662C16.2333 2.63726 16.1333 2.48407 16.066 2.3159C15.9987 2.14772 15.9653 1.96788 15.9678 1.78674C15.9703 1.6056 16.0086 1.42675 16.0806 1.26051C16.1525 1.09426 16.2567 0.943896 16.3871 0.818094C16.5174 0.692292 16.6714 0.593537 16.8401 0.527523C18.4555 -0.11926 20.2485 -0.169443 21.8976 0.385973C23.5467 0.941388 24.944 2.06608 25.839 3.55838C26.734 5.05068 27.0681 6.813 26.7815 8.52934C26.4949 10.2457 25.6063 11.8038 24.2749 12.9243C26.0701 13.736 27.6258 14.9966 28.7919 16.5846C29.0051 16.8783 29.0933 17.2446 29.0372 17.6032C28.981 17.9619 28.7851 18.2837 28.4922 18.4982Z" fill="#6A6F73"/>
</svg>
