<svg width="29" height="29" viewBox="0 0 29 29" fill="none" xmlns="http://www.w3.org/2000/svg">
<path d="M12.8398 0.609186C13.2885 0.217976 13.8825 0 14.5 0C15.1175 0 15.7115 0.217976 16.1602 0.609186L27.8666 10.8142C28.5916 11.4449 29 12.3252 29 13.2434V25.657C29 26.5436 28.6181 27.3939 27.9383 28.0209C27.2584 28.6478 26.3364 29 25.375 29H20.5417C20.0654 29 19.5938 28.9135 19.1539 28.7453C18.7139 28.5772 18.3142 28.3307 17.9775 28.0201C17.6409 27.7094 17.3739 27.3406 17.1919 26.9348C17.0099 26.5289 16.9163 26.094 16.9167 25.6548V20.0832C16.9167 19.7876 16.7894 19.5042 16.5628 19.2952C16.3361 19.0862 16.0288 18.9688 15.7083 18.9688H13.2917C12.9712 18.9688 12.6639 19.0862 12.4372 19.2952C12.2106 19.5042 12.0833 19.7876 12.0833 20.0832V25.6548C12.0833 26.5414 11.7014 27.3917 11.0216 28.0186C10.3418 28.6456 9.41974 28.9978 8.45833 28.9978H3.625C2.66359 28.9978 1.74156 28.6456 1.06174 28.0186C0.381919 27.3917 0 26.5414 0 25.6548V13.2412C0 12.323 0.410833 11.4427 1.13583 10.812L12.8398 0.604729V0.609186ZM14.5 2.22719L2.79367 12.4344C2.67483 12.5383 2.58013 12.6634 2.51532 12.8021C2.45051 12.9408 2.41695 13.0902 2.41667 13.2412V25.6548C2.41667 25.9503 2.54397 26.2338 2.77058 26.4427C2.99719 26.6517 3.30453 26.7691 3.625 26.7691H8.45833C8.7788 26.7691 9.08615 26.6517 9.31275 26.4427C9.53936 26.2338 9.66667 25.9503 9.66667 25.6548V20.0832C9.66667 19.1965 10.0486 18.3462 10.7284 17.7193C11.4082 17.0924 12.3303 16.7402 13.2917 16.7402H15.7083C16.6697 16.7402 17.5918 17.0924 18.2716 17.7193C18.9514 18.3462 19.3333 19.1965 19.3333 20.0832V25.6548C19.3333 25.9503 19.4606 26.2338 19.6872 26.4427C19.9139 26.6517 20.2212 26.7691 20.5417 26.7691H25.375C25.6955 26.7691 26.0028 26.6517 26.2294 26.4427C26.456 26.2338 26.5833 25.9503 26.5833 25.6548V13.2412C26.5834 13.0898 26.55 12.94 26.4852 12.8009C26.4203 12.6618 26.3255 12.5363 26.2063 12.4322L14.5 2.22719Z" fill="#6A6F73"/>
</svg>
