<svg width="44" height="37" viewBox="0 0 44 37" fill="none" xmlns="http://www.w3.org/2000/svg">
<path id="Vector" d="M44 11.9507C44 25.4435 23.6127 36.3649 22.7445 36.816C22.5156 36.9368 22.2598 37 22 37C21.7402 37 21.4844 36.9368 21.2555 36.816C20.3873 36.3649 0 25.4435 0 11.9507C0.00363931 8.7823 1.2879 5.74466 3.57104 3.50423C5.85418 1.26381 8.94973 0.00357122 12.1786 0C16.2348 0 19.7862 1.71165 22 4.60489C24.2137 1.71165 27.7652 0 31.8214 0C35.0503 0.00357122 38.1458 1.26381 40.429 3.50423C42.7121 5.74466 43.9964 8.7823 44 11.9507Z" fill="#F37671"/>
</svg>
