<svg width="29" height="30" viewBox="0 0 29 30" fill="none" xmlns="http://www.w3.org/2000/svg">
<path id="Vector" d="M14.5163 0C15.6531 0.012308 16.7853 0.143081 17.8958 0.389242C18.132 0.441627 18.3459 0.56602 18.5075 0.745037C18.6691 0.924054 18.7704 1.14875 18.7972 1.38773L19.0605 3.73703C19.0976 4.06824 19.2126 4.38617 19.396 4.66522C19.5794 4.94427 19.8262 5.17665 20.1165 5.34367C20.4069 5.51069 20.7326 5.60769 21.0675 5.62685C21.4025 5.64601 21.7373 5.5868 22.045 5.454L24.2133 4.50782C24.4336 4.41143 24.6786 4.38542 24.9145 4.43337C25.1503 4.48133 25.3653 4.60089 25.5298 4.77552C27.0976 6.43866 28.2653 8.43336 28.9449 10.6095C29.016 10.8384 29.0136 11.0835 28.9381 11.3109C28.8626 11.5383 28.7178 11.7368 28.5236 11.8788L26.6016 13.2881C26.3308 13.4852 26.1105 13.743 25.9587 14.0405C25.8069 14.338 25.7278 14.6669 25.7278 15.0004C25.7278 15.334 25.8069 15.6628 25.9587 15.9603C26.1105 16.2578 26.3308 16.5156 26.6016 16.7128L28.5267 18.1205C28.7212 18.2626 28.8662 18.4613 28.9417 18.6891C29.0172 18.9168 29.0194 19.1623 28.948 19.3913C28.2686 21.5672 27.1015 23.5619 25.5344 25.2253C25.3703 25.3999 25.1556 25.5195 24.9201 25.5678C24.6846 25.616 24.4398 25.5904 24.2195 25.4946L22.0419 24.5453C21.7346 24.4115 21.3999 24.3514 21.0649 24.3699C20.7299 24.3884 20.4039 24.485 20.1135 24.6519C19.823 24.8188 19.5762 25.0512 19.393 25.3305C19.2098 25.6097 19.0953 25.9279 19.0589 26.2592L18.7956 28.6069C18.7693 28.8431 18.6703 29.0655 18.512 29.2437C18.3537 29.4218 18.1439 29.5471 17.9112 29.6024C15.6679 30.1325 13.3306 30.1325 11.0872 29.6024C10.8543 29.5474 10.6441 29.4222 10.4856 29.244C10.327 29.0658 10.2277 28.8433 10.2013 28.6069L9.93955 26.2623C9.90153 25.932 9.78606 25.6151 9.60243 25.3372C9.41879 25.0592 9.1721 24.8279 8.88217 24.6619C8.59224 24.4958 8.26714 24.3996 7.93299 24.3809C7.59883 24.3623 7.26493 24.4217 6.9581 24.5545L4.78048 25.5022C4.56002 25.5984 4.31491 25.6242 4.07906 25.576C3.84321 25.5277 3.62828 25.4079 3.464 25.233C1.89672 23.5676 0.730119 21.5708 0.0519889 19.3928C-0.0194166 19.1638 -0.0172173 18.9183 0.0582812 18.6906C0.13378 18.4629 0.278827 18.2641 0.473263 18.122L2.39843 16.7128C2.66923 16.5156 2.88946 16.2578 3.04126 15.9603C3.19306 15.6628 3.27216 15.334 3.27216 15.0004C3.27216 14.6669 3.19306 14.338 3.04126 14.0405C2.88946 13.743 2.66923 13.4852 2.39843 13.2881L0.473263 11.8819C0.278827 11.7398 0.13378 11.5411 0.0582812 11.3133C-0.0172173 11.0856 -0.0194166 10.8401 0.0519889 10.6111C0.73163 8.4349 1.89929 6.4402 3.4671 4.77706C3.63156 4.60243 3.84658 4.48287 4.08242 4.43491C4.31826 4.38696 4.56327 4.41297 4.78358 4.50936L6.95191 5.45554C7.26015 5.58826 7.59543 5.64733 7.93082 5.62798C8.26621 5.60864 8.59236 5.51142 8.88307 5.34414C9.17377 5.17686 9.42093 4.94419 9.60468 4.66481C9.78843 4.38543 9.90365 4.06713 9.9411 3.73549L10.2044 1.38773C10.231 1.14827 10.3323 0.923077 10.4943 0.743735C10.6562 0.564392 10.8706 0.439895 11.1073 0.387703C12.2271 0.14187 13.3695 0.0119417 14.5163 0ZM14.5163 2.30776C13.8137 2.31596 13.1127 2.37612 12.4192 2.48776L12.2488 3.99088C12.1713 4.68214 11.9315 5.34564 11.5485 5.92793C11.1656 6.51021 10.6503 6.99499 10.0442 7.34319C9.43803 7.69139 8.75804 7.89328 8.05897 7.93258C7.35991 7.97188 6.66133 7.84749 6.01953 7.56944L4.62715 6.96327C3.74192 8.03082 3.03731 9.23425 2.54092 10.5264L3.77531 11.4295C4.3395 11.8412 4.79826 12.379 5.1145 12.9994C5.43075 13.6198 5.59561 14.3054 5.59577 15.0008C5.59592 15.6962 5.43135 16.3819 5.11537 17.0024C4.79939 17.6229 4.34087 18.1609 3.77686 18.5728L2.53937 19.4775C3.03498 20.7729 3.74124 21.9791 4.62715 23.0499L6.02882 22.4391C6.66924 22.1613 7.36636 22.0368 8.06406 22.0756C8.76177 22.1143 9.44057 22.3153 10.0458 22.6622C10.6511 23.0091 11.1659 23.4924 11.5488 24.073C11.9317 24.6537 12.172 25.3156 12.2504 26.0053L12.4192 27.5192C13.7976 27.75 15.2055 27.75 16.5824 27.5192L16.7527 26.0053C16.8298 25.3147 17.0693 24.6517 17.4519 24.0699C17.8344 23.4882 18.3493 23.0039 18.955 22.6562C19.5607 22.3085 20.2402 22.1071 20.9386 22.0684C21.6371 22.0296 22.3349 22.1545 22.9758 22.4329L24.3759 23.0422C25.2619 21.9737 25.967 20.7692 26.4637 19.4759L25.2278 18.5713C24.6633 18.1598 24.2043 17.6221 23.8878 17.0017C23.5714 16.3812 23.4064 15.6955 23.4063 15C23.4061 14.3045 23.5708 13.6188 23.887 12.9982C24.2031 12.3776 24.6619 11.8397 25.2262 11.428L26.4606 10.5249C25.9639 9.23207 25.2588 8.0281 24.3728 6.96019L22.9836 7.56483C22.342 7.84383 21.6433 7.96906 20.944 7.9304C20.2447 7.89173 19.5644 7.69027 18.9579 7.34226C18.3515 6.99425 17.8359 6.50945 17.4528 5.92702C17.0698 5.34458 16.8299 4.68082 16.7527 3.98934L16.5839 2.48776C15.9007 2.37682 15.2085 2.31665 14.5163 2.30776ZM14.4977 9.23103C16.0381 9.23103 17.5153 9.83887 18.6046 10.9208C19.6938 12.0028 20.3057 13.4703 20.3057 15.0004C20.3057 16.5306 19.6938 17.998 18.6046 19.08C17.5153 20.162 16.0381 20.7698 14.4977 20.7698C12.9573 20.7698 11.48 20.162 10.3908 19.08C9.30158 17.998 8.68966 16.5306 8.68966 15.0004C8.68966 13.4703 9.30158 12.0028 10.3908 10.9208C11.48 9.83887 12.9573 9.23103 14.4977 9.23103ZM14.4977 11.5388C13.5734 11.5388 12.6871 11.9035 12.0335 12.5527C11.38 13.2019 11.0129 14.0823 11.0129 15.0004C11.0129 15.9185 11.38 16.799 12.0335 17.4482C12.6871 18.0973 13.5734 18.4621 14.4977 18.4621C15.4219 18.4621 16.3083 18.0973 16.9618 17.4482C17.6153 16.799 17.9825 15.9185 17.9825 15.0004C17.9825 14.0823 17.6153 13.2019 16.9618 12.5527C16.3083 11.9035 15.4219 11.5388 14.4977 11.5388Z" fill="#6A6F73"/>
</svg>
